<svg xmlns="http://www.w3.org/2000/svg" version="1.0" width="128.000000pt" height="128.000000pt" viewBox="0 0 128.000000 128.000000" preserveAspectRatio="xMidYMid meet">

<g transform="translate(0.000000,128.000000) scale(0.100000,-0.100000)" fill="#ff4e50" stroke="none">
<path d="M472 1185 c-11 -13 -25 -38 -32 -55 l-13 -31 -72 6 c-68 7 -73 6 -89 -16 -10 -15 -16 -44 -16 -76 0 -57 -7 -65 -69 -77 -71 -13 -88 -57 -51 -137 l20 -44 -47 -41 c-64 -57 -64 -91 0 -148 l47 -41 -21 -45 c-29 -64 -23 -101 21 -122 19 -9 49 -20 65 -25 28 -8 30 -12 35 -69 7 -88 18 -97 106 -89 l71 6 13 -31 c35 -86 79 -100 148 -50 23 16 46 30 52 30 6 0 29 -14 52 -30 63 -46 95 -39 133 28 l30 53 65 -6 c89 -8 103 3 110 86 5 60 7 64 35 72 17 5 46 16 65 25 44 21 50 58 20 122 l-20 45 39 35 c73 66 74 91 5 155 l-44 40 20 44 c37 80 20 124 -51 137 -62 12 -69 20 -69 77 0 32 -6 61 -16 76 -16 22 -21 23 -89 16 l-72 -6 -13 31 c-35 86 -79 100 -148 50 -23 -16 -46 -30 -52 -30 -6 0 -29 14 -52 30 -51 37 -90 39 -116 5z m106 -63 c44 -34 81 -32 132 6 24 17 47 29 52 26 4 -3 17 -23 28 -45 31 -59 58 -73 120 -60 29 6 56 9 61 5 5 -3 9 -30 9 -60 0 -40 5 -59 19 -73 18 -18 79 -41 109 -41 17 0 15 -11 -8 -61 -29 -65 -26 -83 27 -134 l48 -45 -48 -45 c-53 -51 -56 -69 -27 -134 23 -50 25 -61 8 -61 -30 0 -91 -23 -109 -41 -14 -14 -19 -33 -19 -73 0 -30 -4 -57 -9 -60 -5 -4 -32 -1 -59 6 -62 14 -91 -1 -122 -61 -11 -22 -24 -42 -28 -45 -5 -3 -28 9 -52 26 -53 40 -87 40 -140 0 -24 -17 -47 -29 -52 -26 -4 3 -17 23 -28 45 -31 60 -60 75 -122 61 -27 -7 -54 -10 -59 -6 -5 3 -9 30 -9 60 0 40 -5 59 -19 73 -18 18 -79 41 -108 41 -18 0 -16 11 7 61 29 65 26 83 -27 134 l-48 45 48 45 c53 51 56 69 27 134 -11 24 -20 47 -20 51 0 4 17 11 37 15 84 16 100 34 105 125 3 50 4 50 85 36 39 -7 45 -5 70 21 16 16 36 44 45 62 19 35 20 34 76 -7z" fill="#ff4e50"/>
<path d="M480 863 c-103 -38 -75 -183 35 -183 35 0 85 50 85 85 0 41 -26 82 -61 94 -35 12 -37 12 -59 4z m61 -74 c9 -18 7 -25 -9 -41 -16 -16 -23 -18 -41 -9 -20 11 -29 50 -14 64 14 15 53 6 64 -14z" fill="#ff4e50"/>
<path d="M622 657 c-181 -181 -216 -227 -174 -227 22 0 402 380 402 403 0 41 -47 5 -228 -176z" fill="#ff4e50"/>
<path d="M709 571 c-49 -49 -30 -129 34 -150 75 -25 141 41 116 116 -21 64 -101 83 -150 34z m85 -34 c28 -20 18 -61 -16 -65 -37 -4 -57 31 -32 59 20 23 25 23 48 6z" fill="#ff4e50"/>
</g>
</svg>