<svg xmlns="http://www.w3.org/2000/svg" version="1.0" width="128.000000pt" height="128.000000pt" viewBox="0 0 128.000000 128.000000" preserveAspectRatio="xMidYMid meet">

<g transform="translate(0.000000,128.000000) scale(0.100000,-0.100000)" fill="#2f5596" stroke="none">
<path d="M594 1271 c-11 -5 -32 -23 -47 -40 -22 -27 -32 -31 -74 -31 -27 0 -54 -5 -61 -12 -16 -16 -16 -200 0 -216 17 -17 439 -17 456 0 16 16 16 200 0 216 -7 7 -34 12 -60 12 -42 0 -52 4 -80 36 -35 38 -92 53 -134 35z" fill="#2f5596"/>
<path d="M186 1094 l-26 -27 0 -507 0 -507 26 -27 27 -26 427 0 427 0 27 26 26 27 0 507 0 507 -26 27 c-22 22 -36 26 -80 26 l-54 0 0 -67 c0 -84 -21 -131 -70 -155 -30 -16 -65 -18 -250 -18 -185 0 -220 2 -250 18 -49 24 -70 71 -70 155 l0 67 -54 0 c-44 0 -58 -4 -80 -26z m442 -306 c7 -7 12 -19 12 -27 0 -20 -180 -201 -199 -201 -21 0 -121 100 -121 120 0 20 19 40 39 40 8 0 30 -14 48 -32 l33 -32 73 72 c72 72 92 83 115 60z m326 -90 c8 -13 8 -23 0 -35 -9 -15 -29 -19 -109 -21 -100 -3 -125 5 -125 37 0 35 21 42 124 39 81 -2 101 -6 110 -20z m-326 -230 c7 -7 12 -19 12 -27 0 -20 -180 -201 -199 -201 -21 0 -121 100 -121 120 0 20 19 40 39 40 8 0 30 -14 48 -32 l33 -32 73 72 c72 72 92 83 115 60z m326 -90 c8 -13 8 -23 0 -35 -9 -15 -29 -19 -109 -21 -100 -3 -125 5 -125 37 0 35 21 42 124 39 81 -2 101 -6 110 -20z" fill="#2f5596"/>
</g>
</svg>