<?xml version="1.0" encoding="utf-8"?>
<!-- Generator: Adobe Illustrator 24.3.0, SVG Export Plug-In . SVG Version: 6.00 Build 0)  -->
<svg version="1.0" id="katman_1" xmlns="http://www.w3.org/2000/svg" xmlns:xlink="http://www.w3.org/1999/xlink" x="0px" y="0px"
	 viewBox="0 0 481.5 324.28" style="enable-background:new 0 0 481.5 324.28;" xml:space="preserve">
<style type="text/css">
	.st0{fill:#DD4814;}
</style>
<path class="st0" d="M48.22,195.99c-4.41-1.95-7.4-6.14-7.8-10.95c0.26-4.94,2.87-9.46,7.02-12.16c-0.68,1.66-0.52,3.55,0.43,5.07
	c1.08,1.5,2.93,2.22,4.74,1.85c2.58-0.73,4.09-3.41,3.37-5.99c-0.26-0.9-0.77-1.72-1.48-2.34c-2.92-2.37-4.39-6.11-3.87-9.84
	c0.5-1.98,1.59-3.76,3.14-5.11c-1.16,3.09,2.11,6.14,4.31,7.64c3.9,2.34,7.64,4.9,11.23,7.69c3.92,3.09,6.06,7.93,5.73,12.88
	c-0.88,5.27-4.61,9.62-9.69,11.25c10.16-2.26,20.64-10.34,20.84-21.79c-0.2-9.16-5.67-17.38-14.03-21.13h-0.37
	c0.18,0.45,0.27,0.93,0.26,1.42c0.03-0.32,0.03-0.63,0-0.94c0.05,0.37,0.05,0.75,0,1.12c-0.64,2.6-3.26,4.21-5.88,3.57
	c-1.04-0.26-1.98-0.84-2.65-1.69c-3.35-4.29,0-9.18,0.56-13.91c0.34-6.04-2.42-11.81-7.31-15.34c2.45,4.08-0.81,9.45-3.19,12.5
	c-2.38,3.05-5.81,5.33-8.61,7.99c-3.02,2.81-5.78,5.89-8.27,9.19c-5.37,6.56-7.47,15.2-5.73,23.49c2.39,7.99,9.03,13.99,17.22,15.55
	h0.05L48.22,195.99z"/>
<path class="st0" d="M117.91,161.67c0-2.57,0.44-5.11,1.32-7.64c0.92-2.57,2.24-4.85,3.97-6.85s3.85-3.63,6.37-4.87
	c2.53-1.28,5.39-1.92,8.6-1.92c3.81,0,7.05,0.86,9.74,2.59c2.73,1.72,4.73,3.97,6.01,6.73l-3.31,2.04c-0.68-1.4-1.52-2.59-2.53-3.55
	c-0.96-0.96-2-1.74-3.13-2.34s-2.28-1.02-3.49-1.26c-1.2-0.28-2.38-0.42-3.55-0.42c-2.57,0-4.83,0.52-6.79,1.56
	s-3.63,2.41-4.99,4.09c-1.32,1.68-2.32,3.59-3.01,5.71c-0.68,2.08-1.02,4.21-1.02,6.37c0,2.36,0.4,4.63,1.2,6.79
	c0.84,2.16,1.96,4.09,3.37,5.77c1.44,1.64,3.13,2.97,5.05,3.97c1.96,0.96,4.09,1.44,6.37,1.44c1.2,0,2.43-0.14,3.67-0.42
	c1.28-0.32,2.51-0.8,3.67-1.44c1.2-0.68,2.3-1.5,3.31-2.47c1-1,1.84-2.2,2.53-3.61l3.49,1.8c-0.68,1.6-1.64,3.03-2.89,4.27
	c-1.24,1.2-2.63,2.22-4.15,3.07c-1.52,0.84-3.15,1.48-4.87,1.92c-1.68,0.44-3.35,0.66-4.99,0.66c-2.93,0-5.61-0.64-8.06-1.92
	c-2.45-1.28-4.55-2.95-6.31-4.99c-1.76-2.08-3.15-4.43-4.15-7.03C118.39,167.08,117.91,164.4,117.91,161.67z M174.49,183.92
	c-2.28,0-4.37-0.42-6.25-1.26c-1.88-0.88-3.53-2.06-4.93-3.55c-1.36-1.48-2.43-3.21-3.19-5.17s-1.14-4.03-1.14-6.19
	c0-2.2,0.38-4.29,1.14-6.25c0.8-1.96,1.88-3.69,3.25-5.17c1.4-1.48,3.05-2.67,4.93-3.55c1.88-0.88,3.95-1.32,6.19-1.32
	s4.31,0.44,6.19,1.32c1.92,0.88,3.57,2.06,4.93,3.55c1.4,1.48,2.49,3.21,3.25,5.17c0.8,1.96,1.2,4.05,1.2,6.25
	c0,2.16-0.38,4.23-1.14,6.19s-1.84,3.69-3.25,5.17c-1.36,1.48-3.01,2.67-4.93,3.55C178.86,183.5,176.77,183.92,174.49,183.92z
	 M163.13,167.81c0,1.76,0.3,3.41,0.9,4.93c0.6,1.48,1.4,2.81,2.41,3.97c1.04,1.12,2.24,2,3.61,2.65c1.4,0.64,2.89,0.96,4.45,0.96
	s3.03-0.32,4.39-0.96c1.4-0.68,2.63-1.58,3.67-2.71c1.04-1.16,1.86-2.51,2.47-4.03c0.6-1.52,0.9-3.17,0.9-4.93
	c0-1.72-0.3-3.35-0.9-4.87c-0.6-1.56-1.42-2.91-2.47-4.03c-1.04-1.16-2.26-2.06-3.67-2.71c-1.36-0.68-2.83-1.02-4.39-1.02
	s-3.03,0.34-4.39,1.02c-1.36,0.64-2.57,1.54-3.61,2.71c-1.04,1.16-1.86,2.53-2.47,4.09C163.43,164.4,163.13,166.04,163.13,167.81z
	 M209.78,183.92c-2.16,0-4.17-0.44-6.01-1.32c-1.84-0.92-3.43-2.12-4.75-3.61c-1.32-1.48-2.36-3.19-3.13-5.11
	c-0.72-1.96-1.08-4.01-1.08-6.13c0-2.2,0.36-4.29,1.08-6.25c0.72-2,1.7-3.75,2.95-5.23c1.28-1.48,2.79-2.65,4.51-3.49
	c1.76-0.88,3.69-1.32,5.77-1.32c2.65,0,4.99,0.7,7.03,2.1c2.04,1.36,3.65,3.03,4.81,4.99v-19.12h4.09v38.6
	c0,1.12,0.48,1.68,1.44,1.68v3.61c-0.6,0.12-1.08,0.18-1.44,0.18c-0.96,0-1.8-0.3-2.53-0.9c-0.72-0.64-1.08-1.4-1.08-2.28v-3.07
	c-1.24,2.04-2.93,3.67-5.05,4.87C214.27,183.32,212.07,183.92,209.78,183.92z M210.68,180.31c1,0,2.06-0.2,3.19-0.6
	c1.16-0.4,2.24-0.94,3.25-1.62c1-0.72,1.84-1.54,2.53-2.47c0.72-0.96,1.16-1.98,1.32-3.07v-9.68c-0.4-1.08-0.98-2.08-1.74-3.01
	c-0.76-0.96-1.64-1.8-2.65-2.53c-0.96-0.72-2-1.28-3.13-1.68c-1.12-0.4-2.22-0.6-3.31-0.6c-1.68,0-3.21,0.36-4.57,1.08
	s-2.55,1.68-3.55,2.89c-0.96,1.16-1.7,2.51-2.22,4.03c-0.52,1.52-0.78,3.09-0.78,4.69c0,1.68,0.3,3.29,0.9,4.81
	c0.6,1.52,1.42,2.87,2.47,4.03c1.04,1.12,2.26,2.02,3.67,2.71C207.5,179.97,209.04,180.31,210.68,180.31z M247.84,183.92
	c-2.28,0-4.39-0.42-6.31-1.26c-1.88-0.88-3.53-2.06-4.93-3.55c-1.4-1.52-2.51-3.27-3.31-5.23c-0.76-1.96-1.14-4.07-1.14-6.31
	c0-2.2,0.38-4.27,1.14-6.19c0.8-1.96,1.88-3.67,3.25-5.11c1.4-1.48,3.07-2.65,4.99-3.49c1.92-0.88,4.01-1.32,6.25-1.32
	c2.28,0,4.37,0.44,6.25,1.32c1.92,0.84,3.57,2,4.93,3.49s2.43,3.19,3.19,5.11c0.76,1.92,1.14,3.97,1.14,6.13c0,0.32,0,0.64,0,0.96
	c0,0.32-0.02,0.54-0.06,0.66h-26.82c0.12,1.68,0.5,3.25,1.14,4.69c0.68,1.4,1.54,2.63,2.59,3.67c1.04,1.04,2.22,1.86,3.55,2.47
	c1.36,0.56,2.81,0.84,4.33,0.84c1,0,2-0.14,3.01-0.42c1-0.28,1.92-0.66,2.77-1.14c0.84-0.48,1.6-1.06,2.28-1.74
	c0.68-0.72,1.2-1.5,1.56-2.34l3.55,0.96c-0.48,1.16-1.16,2.22-2.04,3.19c-0.88,0.92-1.9,1.74-3.07,2.47
	c-1.16,0.68-2.45,1.22-3.85,1.62C250.83,183.74,249.37,183.92,247.84,183.92z M236.36,166h23.03c-0.12-1.68-0.52-3.21-1.2-4.57
	c-0.64-1.4-1.48-2.61-2.53-3.61c-1-1-2.18-1.78-3.55-2.34c-1.32-0.56-2.75-0.84-4.27-0.84c-1.52,0-2.97,0.28-4.33,0.84
	c-1.36,0.56-2.57,1.34-3.61,2.34c-1,1-1.82,2.2-2.47,3.61C236.84,162.84,236.48,164.36,236.36,166z M277.85,183.32h-8.3v-42.69h8.3
	V183.32z M297.93,183.5c-2.12,0-4.05-0.42-5.77-1.26c-1.72-0.84-3.23-1.98-4.51-3.43c-1.24-1.48-2.2-3.19-2.89-5.11
	s-1.02-3.97-1.02-6.13c0-2.28,0.36-4.41,1.08-6.37c0.72-1.96,1.72-3.69,3.01-5.17c1.28-1.48,2.83-2.65,4.63-3.49
	c1.8-0.84,3.79-1.26,5.95-1.26c2.45,0,4.59,0.56,6.43,1.68c1.84,1.08,3.37,2.55,4.57,4.39v-5.53h7.03v30c0,2.32-0.44,4.41-1.32,6.25
	s-2.1,3.41-3.67,4.69c-1.52,1.28-3.37,2.26-5.53,2.95c-2.12,0.68-4.45,1.02-6.97,1.02c-3.45,0-6.35-0.56-8.72-1.68
	c-2.32-1.16-4.33-2.79-6.01-4.87l4.39-4.27c1.2,1.48,2.71,2.65,4.51,3.49c1.84,0.84,3.79,1.26,5.83,1.26c1.24,0,2.43-0.16,3.55-0.48
	c1.16-0.36,2.18-0.9,3.07-1.62c0.88-0.72,1.56-1.64,2.04-2.77c0.52-1.12,0.78-2.45,0.78-3.97v-3.97c-1.04,1.8-2.51,3.21-4.39,4.21
	C302.12,183.02,300.09,183.5,297.93,183.5z M300.63,177.07c0.88,0,1.72-0.14,2.53-0.42c0.8-0.28,1.54-0.66,2.22-1.14
	c0.68-0.48,1.28-1.04,1.8-1.68s0.92-1.32,1.2-2.04v-7.52c-0.72-1.84-1.86-3.33-3.43-4.45c-1.52-1.12-3.13-1.68-4.81-1.68
	c-1.24,0-2.36,0.28-3.37,0.84c-1,0.52-1.86,1.24-2.59,2.16c-0.72,0.88-1.28,1.9-1.68,3.07c-0.36,1.16-0.54,2.36-0.54,3.61
	c0,1.28,0.22,2.49,0.66,3.61c0.44,1.12,1.04,2.1,1.8,2.95c0.8,0.84,1.72,1.5,2.77,1.98C298.25,176.83,299.39,177.07,300.63,177.07z
	 M353,163.66v19.66h-8.06v-17.68c0-2.53-0.44-4.37-1.32-5.53c-0.88-1.16-2.1-1.74-3.67-1.74c-0.8,0-1.62,0.16-2.47,0.48
	c-0.84,0.32-1.64,0.78-2.4,1.38c-0.72,0.56-1.38,1.24-1.98,2.04s-1.04,1.68-1.32,2.65v18.4h-8.06v-31.51H331v5.83
	c1.16-2,2.85-3.57,5.05-4.69s4.69-1.68,7.46-1.68c1.96,0,3.57,0.36,4.81,1.08c1.24,0.72,2.2,1.66,2.89,2.83s1.14,2.49,1.38,3.97
	C352.86,160.63,353,162.13,353,163.66z M368.09,183.32h-8.06v-31.51h8.06V183.32z M368.09,147.42h-8.06v-8h8.06V147.42z
	 M392.63,175.32l1.62,6.37c-1.08,0.48-2.41,0.96-3.97,1.44c-1.56,0.48-3.21,0.72-4.93,0.72c-1.12,0-2.18-0.14-3.19-0.42
	c-0.96-0.28-1.82-0.72-2.59-1.32c-0.72-0.64-1.3-1.44-1.74-2.41c-0.44-1-0.66-2.2-0.66-3.61v-18.1h-4.15v-6.19h4.15v-10.22h8.06
	v10.22h6.61v6.19h-6.61v15.39c0,1.12,0.28,1.92,0.84,2.41c0.6,0.44,1.32,0.66,2.16,0.66s1.66-0.14,2.47-0.42
	C391.5,175.76,392.14,175.52,392.63,175.32z M412.29,183.92c-2.53,0-4.81-0.42-6.85-1.26c-2.04-0.88-3.79-2.06-5.23-3.55
	c-1.44-1.48-2.57-3.21-3.37-5.17c-0.76-1.96-1.14-4.03-1.14-6.19c0-2.24,0.38-4.35,1.14-6.31c0.76-2,1.86-3.75,3.31-5.23
	c1.44-1.52,3.19-2.73,5.23-3.61c2.08-0.88,4.41-1.32,6.97-1.32c2.57,0,4.85,0.44,6.85,1.32c2.04,0.88,3.77,2.06,5.17,3.55
	c1.44,1.48,2.53,3.21,3.25,5.17c0.76,1.96,1.14,4.01,1.14,6.13c0,0.52-0.02,1.02-0.06,1.5c0,0.48-0.04,0.88-0.12,1.2h-24.35
	c0.12,1.24,0.42,2.34,0.9,3.31c0.48,0.96,1.1,1.78,1.86,2.47s1.62,1.2,2.59,1.56c0.96,0.36,1.96,0.54,3.01,0.54
	c1.6,0,3.11-0.38,4.51-1.14c1.44-0.8,2.43-1.84,2.95-3.13l6.91,1.92c-1.16,2.41-3.03,4.39-5.59,5.95
	C418.84,183.16,415.81,183.92,412.29,183.92z M404.11,164.92h16.35c-0.2-2.36-1.08-4.25-2.65-5.65c-1.52-1.44-3.39-2.16-5.59-2.16
	c-1.08,0-2.1,0.2-3.07,0.6c-0.92,0.36-1.74,0.88-2.47,1.56c-0.72,0.68-1.32,1.5-1.8,2.47C404.45,162.7,404.19,163.76,404.11,164.92z
	 M452.45,151.45v7.34c-2.45,0.04-4.63,0.52-6.55,1.44c-1.92,0.88-3.31,2.22-4.15,4.03v19.06h-8.06v-31.51h7.4v6.73
	c0.56-1.08,1.22-2.04,1.98-2.89c0.76-0.88,1.58-1.64,2.47-2.28c0.88-0.64,1.76-1.12,2.65-1.44c0.92-0.36,1.8-0.54,2.65-0.54
	c0.44,0,0.76,0,0.96,0C452.03,151.39,452.25,151.41,452.45,151.45z"/>
</svg>
